<svg xmlns="http://www.w3.org/2000/svg" width="256" height="256"><path fill-opacity=".016" d="M0 128.004v128.004l128.25-.254 128.25-.254.254-127.75L257.008 0H0v128.004m.485.496c0 70.4.119 99.053.265 63.672.146-35.38.146-92.98 0-128C.604 29.153.485 58.1.485 128.5" fill="#753a88" fill-rule="evenodd"/><path fill-opacity=".322" d="M49 5c-1.959 1.959-2 3.333-2 67.5V138h14V17h115v46h46v176H61.062l-.281-12.25-.281-12.25-6.75-.296-6.75-.295v17.545c0 16.213.152 17.698 2 19.546 1.971 1.971 3.333 2 92.5 2s90.529-.029 92.5-2c1.971-1.971 2-3.333 2-95.256V62.487l-29.756-29.743L176.488 3h-62.744C52.333 3 50.957 3.043 49 5m29 85.5V96h127V85H78v5.5m0 18.991V115H185.105l-.303-5.25-.302-5.25-53.25-.259-53.25-.259v5.509M20 176.5V210H158.645l11.595-31.75c6.378-17.463 11.905-32.537 12.285-33.5.653-1.658-3.601-1.75-80.918-1.75H20v33.5m30 .762v17.461l2.5-.478c2.356-.451 2.5-.847 2.5-6.862V181h6.05c3.334 0 7.31-.652 8.859-1.453 6.053-3.13 6.488-12.704.769-16.951-2.255-1.676-4.612-2.166-11.75-2.445l-8.928-.35v17.461m33 .261v17.773l8.245-.635c8.683-.67 11.343-1.89 15.104-6.927 1.532-2.052 1.98-4.271 2.006-9.938.059-12.922-3.815-16.91-17.105-17.612l-8.25-.435v17.774m34-.023V195h2.5c2.444 0 2.5-.167 2.5-7.5V180h7c6.592 0 7-.131 7.002-2.25.001-2.111-.414-2.25-6.75-2.25H122.5l-.3-5.75-.3-5.75h8.55c7.883 0 8.55-.156 8.55-2 0-1.879-.667-2-11-2h-11v17.5m-62-7v6.5h5.5c8.778 0 12.308-5.283 7.045-10.545-1.957-1.958-3.476-2.455-7.5-2.455H55v6.5m33 6.373V190h5.048c4.174 0 5.472-.458 7.5-2.646 2.137-2.306 2.452-3.583 2.452-9.944 0-9.573-2.127-12.428-9.809-13.166L88 163.746v13.127m-18.96 42.579c-2.113 2.546-.765 4.921 3.468 6.108 5.516 1.548 5.335 3.968-.287 3.852-5.257-.109-5.202 1.949.064 2.396 9.183.778 10.828-6.635 1.87-8.427-4.682-.936-4.071-3.381.845-3.381 2.2 0 4-.45 4-1 0-1.585-8.593-1.195-9.96.452m15.97 5.186c-3.499 7.718-3.423 7.362-1.577 7.362.788 0 1.718-.9 2.067-2 .471-1.483 1.513-2 4.032-2 2.374 0 3.72.602 4.468 2 .589 1.1 1.692 2 2.453 2 1.012 0 .549-1.876-1.728-7-4.071-9.163-5.697-9.223-9.715-.362m14.99.391c0 5.262.328 7.03 1.25 6.727.688-.226 1.392-1.613 1.566-3.083.433-3.657 3.461-3.497 6.184.327 2.525 3.546 6.523 4.079 7.5 1 .491-1.546 1.513-2 4.5-2s4.009.454 4.5 2c.349 1.1 1.279 2 2.067 2 1.909 0 1.911.006-1.782-7.481-1.959-3.973-3.84-6.519-4.816-6.519-.972 0-2.728 2.358-4.469 6-1.577 3.3-3.05 6-3.274 6-.223 0-1.21-.994-2.194-2.209-1.405-1.735-1.548-2.593-.667-4.003 1.888-3.023-.381-5.243-5.717-5.593L100 217.89v7.139m31-.029c0 5.556.31 7 1.5 7 1.052 0 1.5-1.062 1.5-3.56 0-3.503.061-3.556 3.75-3.25 3.439.284 3.776.584 4.068 3.621.567 5.906 2.661 2.994 2.978-4.141.243-5.477.019-6.67-1.25-6.67-.982 0-1.546.912-1.546 2.5 0 2.25-.4 2.5-4 2.5s-4-.25-4-2.5c0-1.556-.567-2.5-1.5-2.5-1.19 0-1.5 1.444-1.5 7m-28-3c0 1.467.667 2 2.5 2s2.5-.533 2.5-2-.667-2-2.5-2-2.5.533-2.5 2m-14.779 1.413c-1.095 2.404-1.003 2.587 1.3 2.587 2.79 0 3.071-.808 1.179-3.396-1.211-1.656-1.38-1.601-2.479.809m31.386.169c-.88 2.294-.809 2.418 1.393 2.418s2.273-.124 1.393-2.418c-.776-2.024-2.01-2.024-2.786 0" fill="#753a88" fill-rule="evenodd"/><path fill-opacity=".73" d="M49.455 5.455L47 7.909V138h13V15.984l58.25.258 58.25.258.269 22.731.268 22.732 22.732.268 22.731.269v177l-81.25.256-81.25.256V215H47v16.545c0 16.234.046 16.592 2.455 19L51.909 253h179.182l2.454-2.455 2.455-2.454V62.487l-29.756-29.743L176.488 3H51.909l-2.454 2.455M78 90.5V95h127v-9H78v4.5m0 19v4.5h107v-9H78v4.5m-58 67.007v33.507l69.165-.257 69.166-.257 11.779-32c6.478-17.6 11.804-32.562 11.834-33.25.044-.99-16.781-1.25-80.944-1.25H20v33.507m29.226.743l.274 17.25 2.75.316 2.75.317V182l4.25-.006c10.21-.013 15.75-3.951 15.75-11.195C75 162.438 71.168 160 58.026 160h-9.073l.273 17.25M82 177.5V195l7.75-.002c13.535-.002 18.502-4.255 19.035-16.299.377-8.503-1.416-12.911-6.683-16.429-2.855-1.908-4.731-2.27-11.75-2.27H82v17.5m35 0V195h6v-15h7c6.8 0 7-.071 7-2.5s-.2-2.5-7-2.5h-7v-10h8c7.867 0 8-.042 8-2.5V160h-22v17.5m-61.8-6.75l.3 5.75 4.332.311c5.873.423 9.168-1.782 9.168-6.134 0-4.607-1.555-5.677-8.25-5.677H54.9l.3 5.75M88 177.5V190h4.444c3.239 0 5.195-.645 7.211-2.379 2.427-2.088 2.814-3.228 3.157-9.303.359-6.347.167-7.189-2.299-10.12C98.159 165.4 97.208 165 92.911 165H88v12.5m-18.559 41.941c-2.708 2.012-.936 4.599 4.122 6.019 5.745 1.611 5.255 4.04-.815 4.04-5.304 0-6.263 1.008-1.876 1.972 4.079.896 7.946-.322 8.715-2.745.768-2.42-1.748-4.727-5.156-4.727-1.202 0-2.697-.615-3.321-1.367-1.782-2.148 1.115-3.962 4.974-3.115 2.205.485 2.959.36 2.482-.411-.978-1.582-6.833-1.368-9.125.334m18.788-.191c-.558.688-2.148 3.613-3.532 6.5-1.77 3.692-2.13 5.25-1.214 5.25.717 0 1.562-.675 1.879-1.5.83-2.165 7.565-1.983 9.196.248 2.601 3.557 2.297.453-.543-5.553-2.985-6.311-3.983-7.164-5.786-4.945M100 224.5c0 3.667.436 6.5 1 6.5.55 0 1-1.125 1-2.5 0-1.98.505-2.5 2.427-2.5 1.399 0 3.262 1.06 4.394 2.5 2.797 3.556 4.793 3.171 2.229-.43-1.283-1.802-1.694-3.172-1.068-3.559 1.698-1.049 1.141-4.375-.916-5.476-1.064-.569-3.539-1.035-5.5-1.035H100v6.5m16.949-.399c-1.694 3.356-2.792 6.39-2.439 6.742.352.352 1.079-.143 1.615-1.101.666-1.192 2.207-1.742 4.875-1.742s4.209.55 4.875 1.742c.536.958 1.263 1.453 1.615 1.101.84-.839-5.227-12.843-6.49-12.843-.534 0-2.357 2.746-4.051 6.101m14.718-5.434c-.367.366-.667 3.291-.667 6.5 0 4.095.384 5.833 1.289 5.833.75 0 1.273-1.151 1.25-2.75-.036-2.528.304-2.775 4.211-3.057 4.14-.3 4.25-.229 4.25 2.75 0 1.681.45 3.057 1 3.057.564 0 1-2.833 1-6.5s-.436-6.5-1-6.5c-.55 0-1 1.376-1 3.057 0 2.979-.11 3.05-4.25 2.75-3.606-.26-4.255-.64-4.28-2.504-.034-2.485-.814-3.626-1.803-2.636m-43.569 4.482c-.604 1.732-1.098 3.307-1.098 3.5 0 .193 1.35.351 3 .351s3-.247 3-.55c0-.82-2.992-6.45-3.428-6.45-.207 0-.87 1.417-1.474 3.149M102 222c0 1.797.504 2.078 3.25 1.813 2.083-.2 3.25-.852 3.25-1.813s-1.167-1.613-3.25-1.813c-2.746-.265-3.25.016-3.25 1.813m17.161 1.547c-1.572 3.449-1.57 3.453 1.839 3.453 1.65 0 3-.204 3-.453 0-1.125-2.391-5.547-3-5.547-.373 0-1.201 1.146-1.839 2.547" fill="#753a88" fill-rule="evenodd"/><path fill-opacity=".956" d="M51.063 4.265c-1.394.706-2.788 2.591-3.258 4.404-.451 1.743-.704 31.443-.563 66L47.5 137.5l6.25.298 6.25.297V16h117v46h46v178H60v-25H46.831l.335 16.966c.289 14.674.575 17.208 2.12 18.75 1.687 1.686 6.769 1.784 92.096 1.784 75.076 0 90.59-.232 91.964-1.372 1.517-1.259 1.654-9.129 1.654-95.007V62.487l-29.756-29.743L175.488 3l-60.994.015c-46.4.011-61.577.31-63.431 1.25M78.843 90.5l-.357 4.5H204v-9H79.201l-.358 4.5m0 19l-.357 4.5H184v-9H79.201l-.358 4.5M21 175.986v32.987l68.489.263 68.49.264.894-2.5c.492-1.375 5.896-16.15 12.01-32.834 6.115-16.684 11.117-30.521 11.117-30.75 0-.229-36.225-.416-80.5-.416H21v32.986M49 177v18h7v-13h5.099c6.619 0 11.338-2.295 13.324-6.478 2.13-4.49 1.989-6.614-.708-10.624-2.897-4.309-7.139-5.77-16.965-5.842L49 159v18m33-.029v18.222l9.485-.346c9.457-.346 9.496-.358 13.25-4.113 3.676-3.677 3.773-3.967 4.116-12.218.305-7.332.06-8.924-1.846-12.008-3.113-5.037-7.119-6.784-16.755-7.309l-8.25-.45v18.222m34.698-17.335c-.384.383-.698 8.497-.698 18.031V195h7v-15h7c6.8 0 7-.071 7-2.5s-.2-2.5-7-2.5h-7v-9.919l8.25-.291c8.056-.283 8.25-.349 8.25-2.79 0-2.499-.005-2.5-11.052-2.781-6.079-.154-11.367.033-11.75.417M56 170.5v5.5h5.465c4.379 0 5.67-.384 6.5-1.934 2.819-5.268-.237-9.066-7.294-9.066H56v5.5m33 7V190h3.05c8.991 0 13.672-9.549 9.535-19.452-1.679-4.017-4.167-5.548-9.019-5.548H89v12.5m-18.25 41.58c-.963.561-1.75 1.867-1.75 2.902 0 1.842.642 2.196 6.25 3.444 3.112.693 3.618 2.969 1 4.494-1.535.894-1.55 1.023-.122 1.05.895.016 2.23-.697 2.967-1.585 1.149-1.384 1.008-1.883-.988-3.5-1.281-1.037-3.418-1.885-4.749-1.885-2.802 0-4.306-2.762-2.254-4.137.768-.515 2.971-.707 4.896-.428 2.457.357 3.053.223 2-.448-1.938-1.236-5.037-1.196-7.25.093m14.911 5.539c-1.516 3.091-2.52 5.855-2.232 6.143.288.288.808-.215 1.154-1.119.85-2.213 9.215-2.332 10.055-.143.317.825.984 1.5 1.483 1.5.499 0-.455-2.7-2.121-6s-3.604-6-4.306-6c-.703 0-2.518 2.529-4.033 5.619M100.5 225c0 6.107 1.109 8.247 1.684 3.25.412-3.588-.226-9.25-1.043-9.25-.353 0-.641 2.7-.641 6m7.25-5.338c2.284.922 1.353 4.134-1.5 5.176-2.099.766-2.286 1.023-.788 1.083 1.08.043 2.976 1.317 4.214 2.829 1.239 1.512 2.268 2.257 2.288 1.655.02-.602-.868-1.913-1.972-2.912-1.872-1.694-1.897-1.941-.362-3.637 1.342-1.483 1.413-2.099.386-3.337-.694-.836-1.768-1.483-2.388-1.44-.709.05-.663.266.122.583M117 225c-1.666 3.3-2.62 6-2.121 6 .499 0 1.166-.675 1.483-1.5.394-1.028 2.001-1.5 5.107-1.5 3.361 0 4.531.387 4.531 1.5 0 .825.425 1.5.945 1.5 1.415 0-4.247-11.929-5.681-11.967-.679-.018-2.598 2.667-4.264 5.967m15.31 0c.005 3.575.192 5.037.413 3.25.387-3.118.584-3.25 4.84-3.25 4.263 0 4.437.117 4.437 3 0 1.65.45 3 1 3 .556 0 1-2.667 1-6s-.444-6-1-6c-.55 0-1 1.125-1 2.5 0 2.291-.371 2.5-4.434 2.5-4.069 0-4.467-.226-4.85-2.75-.229-1.512-.412.175-.406 3.75m-44.609-1.5l-1.669 3.5h3.591c3.028 0 3.478-.274 2.871-1.75a40.476 40.476 0 01-1.224-3.5c-.751-2.612-1.713-2.141-3.569 1.75m31.46-.953c-1.73 3.795-1.458 4.453 1.839 4.453 1.65 0 3-.429 3-.953 0-1.51-2.251-6.047-3-6.047-.373 0-1.201 1.146-1.839 2.547m-49.348 8.136c.721.289 1.584.253 1.916-.079.332-.332-.258-.568-1.312-.525-1.165.048-1.402.285-.604.604" fill="#753a88" fill-rule="evenodd"/></svg>